<?xml version="1.0" standalone="no"?>
<!DOCTYPE svg PUBLIC "-//W3C//DTD SVG 20010904//EN"
 "http://www.w3.org/TR/2001/REC-SVG-20010904/DTD/svg10.dtd">
<svg version="1.0" xmlns="http://www.w3.org/2000/svg"
 width="200.000000pt" height="200.000000pt" viewBox="0 0 200.000000 200.000000"
 preserveAspectRatio="xMidYMid meet">
<metadata>
Created by potrace 1.11, written by Peter Selinger 2001-2013
</metadata>
<g transform="translate(0.000000,200.000000) scale(0.100000,-0.100000)"
fill="#000000" stroke="none">
<path d="M1673 1804 c-12 -13 -23 -35 -23 -49 l0 -25 -329 0 -330 0 -27 -23
c-16 -14 -26 -33 -26 -50 l0 -27 -113 0 c-157 0 -184 -12 -194 -90 0 -5 -19
-14 -41 -20 -36 -10 -41 -15 -52 -55 -11 -40 -15 -44 -55 -54 -38 -10 -43 -15
-53 -52 -6 -23 -11 -58 -10 -78 3 -57 1 -73 -9 -67 -5 3 -22 1 -39 -5 -37 -13
-52 -50 -51 -126 1 -61 -5 -73 -35 -73 -13 0 -31 -9 -42 -21 -19 -21 -23 -87
-24 -411 0 -75 -1 -78 -24 -78 -23 0 -77 -34 -75 -48 6 -36 -3 -52 -26 -52
-14 0 -37 -12 -52 -26 -23 -23 -25 -31 -21 -99 6 -119 -33 -110 468 -112 l429
-3 26 23 c14 12 26 34 27 50 l2 27 123 0 c112 0 124 2 147 23 14 12 27 33 28
47 2 20 12 28 45 38 37 11 44 17 53 51 8 32 16 40 50 50 36 11 42 17 52 56 7
25 18 46 25 46 73 7 95 43 90 147 -2 51 -2 52 30 58 34 6 62 31 68 61 2 10 4
46 4 79 1 59 2 62 27 62 23 0 74 36 72 51 0 3 0 61 1 129 l1 122 25 0 c14 0
37 11 50 25 22 22 25 32 25 105 0 78 1 80 24 80 13 0 34 9 47 19 23 18 24 25
24 151 0 173 2 172 -168 169 -112 -1 -122 -3 -144 -25z"/>
</g>
</svg>
